<svg xmlns="http://www.w3.org/2000/svg" viewBox="0 0 160 160" role="img"><title>an otter with a tiny crown</title><path d="M34 14q33-12 91 1 25 9 24 41l-3 63q-4 28-33 28H47q-30 0-36-28L9 52q1-32 25-38z" fill="#f6eff5" stroke="#fffdf8" stroke-width="7"/><g stroke="#987a83" stroke-width="2.3" stroke-linecap="round" stroke-linejoin="round"><circle cx="53" cy="54" r="12" fill="#cda58c"/><circle cx="107" cy="54" r="12" fill="#cda58c"/><ellipse cx="80" cy="84" rx="35" ry="43" fill="#cda58c"/><ellipse cx="80" cy="92" rx="23" ry="27" fill="#f6e3cf"/><circle cx="65" cy="78" r="2" fill="#826874"/><path d="M91 78q4-5 8 0M75 90q6 7 12 0" fill="none"/><ellipse cx="56" cy="87" rx="6" ry="3" fill="#e4a3b477"/><ellipse cx="103" cy="87" rx="6" ry="3" fill="#e4a3b477"/><path d="M45 33l-4-20 11 8 8-15 8 15 11-8-4 20z" fill="#eed094"/></g></svg>