<svg xmlns="http://www.w3.org/2000/svg" viewBox="0 0 160 160" role="img"><title>a little book with a heart</title><path d="M34 14q33-12 91 1 25 9 24 41l-3 63q-4 28-33 28H47q-30 0-36-28L9 52q1-32 25-38z" fill="#fff2e7" stroke="#fffdf8" stroke-width="7"/><g stroke="#987a83" stroke-width="2.3" stroke-linecap="round" stroke-linejoin="round"><rect x="39" y="35" width="82" height="95" rx="7" fill="#c0d1ce"/><path d="M51 35v95m15-70h38m-38 12h27" fill="none"/><path d="M62 77q4-5 8 0m20 0q4-5 8 0M74 91q6 7 12 0" fill="none"/><ellipse cx="56" cy="87" rx="6" ry="3" fill="#e4a3b477"/><ellipse cx="103" cy="87" rx="6" ry="3" fill="#e4a3b477"/><path d="M115 130q-24-14-17-26 9-8 17 2 8-10 17-2 7 12-17 26z" fill="#df9fb3"/></g></svg>