<svg xmlns="http://www.w3.org/2000/svg" viewBox="0 0 160 160" role="img"><title>a paint palette with little stars</title><path d="M34 14q33-12 91 1 25 9 24 41l-3 63q-4 28-33 28H47q-30 0-36-28L9 52q1-32 25-38z" fill="#eef3eb" stroke="#fffdf8" stroke-width="7"/><g stroke="#987a83" stroke-width="2.3" stroke-linecap="round" stroke-linejoin="round"><path d="M80 32q59 3 53 51-2 22-32 13-11-3-13 17-30 33-56-12-31-61 48-69z" fill="#f0d7ba"/><circle cx="91" cy="58" r="9" fill="#e4adc4"/><circle cx="60" cy="57" r="9" fill="#b8cbab"/><circle cx="43" cy="85" r="9" fill="#d1bedf"/><circle cx="61" cy="107" r="9" fill="#edcd95"/><path d="M61 77q4 5 8 0m22 0q4 5 8 0M74 90q6 5 12 0" fill="none"/><ellipse cx="56" cy="87" rx="6" ry="3" fill="#e4a3b477"/><ellipse cx="103" cy="87" rx="6" ry="3" fill="#e4a3b477"/><path d="M121 34l3 7 8 1-6 5 2 8-7-4-7 4 2-8-6-5 8-1z" fill="#d9b1cc"/><path d="M32 121l2 5 6 1-4 4 1 6-5-3-5 3 1-6-4-4 6-1z" fill="#dfc994"/></g></svg>