<svg xmlns="http://www.w3.org/2000/svg" viewBox="0 0 160 160" role="img"><title>a warm mug with a heart</title><path d="M34 14q33-12 91 1 25 9 24 41l-3 63q-4 28-33 28H47q-30 0-36-28L9 52q1-32 25-38z" fill="#fff2e7" stroke="#fffdf8" stroke-width="7"/><g stroke="#987a83" stroke-width="2.3" stroke-linecap="round" stroke-linejoin="round"><path d="M106 58h14q23 26-14 32" fill="none"/><rect x="41" y="49" width="67" height="65" rx="12" fill="#e8bac7"/><path d="M62 41q-8-9 0-18m21 18q-8-9 0-18" fill="none"/><path d="M62 77q4-5 8 0m20 0q4-5 8 0M74 91q6 7 12 0" fill="none"/><ellipse cx="56" cy="87" rx="6" ry="3" fill="#e4a3b477"/><ellipse cx="103" cy="87" rx="6" ry="3" fill="#e4a3b477"/><path d="M115 130q-24-14-17-26 9-8 17 2 8-10 17-2 7 12-17 26z" fill="#df9fb3"/></g></svg>