<svg xmlns="http://www.w3.org/2000/svg" viewBox="0 0 160 160" role="img"><title>an apple with a flower</title><path d="M34 14q33-12 91 1 25 9 24 41l-3 63q-4 28-33 28H47q-30 0-36-28L9 52q1-32 25-38z" fill="#f4f2e3" stroke="#fffdf8" stroke-width="7"/><g stroke="#987a83" stroke-width="2.3" stroke-linecap="round" stroke-linejoin="round"><path d="M80 51q-37-22-46 21-4 48 46 55 50-7 46-55-9-43-46-21z" fill="#e7a6a5"/><path d="M79 53l5-24" fill="none"/><ellipse cx="100" cy="39" rx="18" ry="8" fill="#a8c198"/><path d="M61 78h8m22 0h8M75 91q5 4 10 0" fill="none"/><ellipse cx="56" cy="87" rx="6" ry="3" fill="#e4a3b477"/><ellipse cx="103" cy="87" rx="6" ry="3" fill="#e4a3b477"/><circle cx="121" cy="108" r="7" fill="#e6bad0"/><circle cx="131" cy="115" r="7" fill="#e6bad0"/><circle cx="127" cy="127" r="7" fill="#e6bad0"/><circle cx="115" cy="127" r="7" fill="#e6bad0"/><circle cx="111" cy="115" r="7" fill="#e6bad0"/><circle cx="121" cy="118" r="6" fill="#efd69c"/></g></svg>