<svg xmlns="http://www.w3.org/2000/svg" viewBox="0 0 160 160" role="img"><title>a mitten with a heart</title><path d="M34 14q33-12 91 1 25 9 24 41l-3 63q-4 28-33 28H47q-30 0-36-28L9 52q1-32 25-38z" fill="#fff2e7" stroke="#fffdf8" stroke-width="7"/><g stroke="#987a83" stroke-width="2.3" stroke-linecap="round" stroke-linejoin="round"><path d="M46 107V64q0-30 24-25 25-10 25 24v16q21-34 35-6 10 25-29 44H46z" fill="#e6bcc5"/><rect x="44" y="108" width="59" height="20" rx="3" fill="#fff0d3"/><path d="M62 77q4-5 8 0m20 0q4-5 8 0M74 91q6 7 12 0" fill="none"/><ellipse cx="56" cy="87" rx="6" ry="3" fill="#e4a3b477"/><ellipse cx="103" cy="87" rx="6" ry="3" fill="#e4a3b477"/><path d="M115 130q-24-14-17-26 9-8 17 2 8-10 17-2 7 12-17 26z" fill="#df9fb3"/></g></svg>