<svg xmlns="http://www.w3.org/2000/svg" viewBox="0 0 360 300"><rect x="1" y="1" width="358" height="298" rx="4" fill="#fffefa"/><g fill="none" stroke="#4e4445" stroke-width="3.5" stroke-linecap="round" stroke-linejoin="round"><path d="M178 95Q117 8 63 66-2 123 180 256 379 113 309 58 246 9 178 95z" fill="#f8d9df" stroke="#bb6882" stroke-width="5"/><path d="M182 89q-4 9-5 13m-99-20q-20 14-16 43" stroke="#e399ab"/><path d="M39 198l-7 9m284-18l13 8M39 44l-9-6m291-10l3-13" stroke="#c39c6e"/><text x="173" y="135" text-anchor="middle" font-family="Comic Sans MS, Segoe Print, cursive" font-size="26" fill="#965069" stroke="none" transform="rotate(-5 173 135)">ash + ashley</text><text x="179" y="173" text-anchor="middle" font-family="Comic Sans MS, Segoe Print, cursive" font-size="19" fill="#965069" stroke="none" transform="rotate(4 179 173)">i like us ♡</text></g></svg>