<svg xmlns="http://www.w3.org/2000/svg" viewBox="0 0 360 300"><rect width="360" height="300" rx="4" fill="#fffefa"/><defs><filter id="wobbly" x="-5%" y="-5%" width="110%" height="110%"><feTurbulence type="fractalNoise" baseFrequency=".065" numOctaves="1" seed="12" result="scribble"/><feDisplacementMap in="SourceGraphic" in2="scribble" scale="2.5" xChannelSelector="R" yChannelSelector="G"/></filter></defs><g filter="url(#wobbly)" stroke="#463d3d" stroke-width="3.2" stroke-linecap="round" stroke-linejoin="round"><path d="M142 174l-16 57 90 1-12-58" fill="#e55f58" stroke="#b85450"/><path d="M128 230l-5 28 38 2 10-21 10 20 39-5-6-24" fill="#efd76d" stroke="#b8a153"/><path d="M125 258l-14 8 47 2m26-10l1 9 42-2" fill="none"/><path d="M137 188l-27 17-11-33m107 14l22 18 11-35" fill="none" stroke="#efc8a7" stroke-width="13"/><path d="M101 171l-7-8m143 6l6-9" fill="none"/><path d="M119 76Q151 43 196 49Q229 49 240 97L240 114Q266 126 243 148Q237 176 193 179Q151 183 126 164Q88 169 92 140Q92 122 115 119Q105 95 119 76Z" fill="#f4ccaa"/><path d="M115 119Q99 95 89 109Q83 123 100 132" fill="#f4ccaa"/><path d="M116 77Q119 34 169 35Q223 27 239 91L229 98Q207 82 181 84Q154 75 116 102Z" fill="#393438"/><path d="M126 104Q145 84 161 102M194 101Q214 87 231 105" fill="none" stroke-width="12"/><path d="M146 121h1m65 2h1" stroke-width="7" fill="none"/><path d="M225 136q-7 0-4 7" fill="none"/><ellipse cx="194" cy="155" rx="6" ry="4" fill="#964b50" stroke-width="2"/><path d="M107 143l16 3m107 1l11-1" stroke="#e59591" stroke-width="7" fill="none"/><path d="M290 89Q267 61 251 80Q231 101 291 145Q343 98 327 80Q308 65 290 89Z" fill="none" stroke="#c8768c" stroke-width="4.5"/><path d="M44 68l18 4m-9-14l-1 24m246 117l14 2m-5-9l-5 16" stroke="#c8a476" fill="none"/><path d="M51 217l13-5m-8 13l11-7" opacity=".3" fill="none"/></g></svg>